{
  "accessors": [
    {
      "bufferView": 2,
      "componentType": 5126,
      "count": 144,
      "max": [
        16.631000518798828,
        28.667999267578125,
        70.276901245117188
      ],
      "min": [
        -17.372400283813477,
        19.757900238037109,
        -0.34189999103546143
      ],
      "type": "VEC3"
    },
    {
      "bufferView": 2,
      "byteOffset": 1728,
      "componentType": 5126,
      "count": 144,
      "max": [
        0.77667504549026489,
        0.63370847702026367,
        0.77322256565093994
      ],
      "min": [
        -0.77650386095046997,
        -0.63360339403152466,
        -0.77317333221435547
      ],
      "type": "VEC3"
    },
    {
      "bufferView": 3,
      "componentType": 5126,
      "count": 144,
      "max": [
        0.95607560873031616,
        0.81855899095535278,
        0.95459657907485962,
        1
      ],
      "min": [
        -0.95607554912567139,
        -0.83974200487136841,
        -0.95462828874588013,
        -1
      ],
      "type": "VEC4"
    },
    {
      "bufferView": 1,
      "componentType": 5126,
      "count": 144,
      "max": [
        0.99849998950958252,
        0.99449998140335083
      ],
      "min": [
        0,
        0
      ],
      "type": "VEC2"
    },
    {
      "bufferView": 0,
      "componentType": 5125,
      "count": 216,
      "max": [
        143
      ],
      "min": [
        0
      ],
      "type": "SCALAR"
    },
    {
      "bufferView": 2,
      "byteOffset": 3456,
      "componentType": 5126,
      "count": 24,
      "max": [
        4.2203001976013184,
        19.861499786376953,
        7.4464001655578613
      ],
      "min": [
        -5.2638998031616211,
        19.690799713134766,
        4.6384000778198242
      ],
      "type": "VEC3"
    },
    {
      "bufferView": 2,
      "byteOffset": 3744,
      "componentType": 5126,
      "count": 24,
      "max": [
        0.58007913827896118,
        0.58021211624145508,
        0.57741206884384155
      ],
      "min": [
        -0.58027857542037964,
        -0.58021211624145508,
        -0.57741206884384155
      ],
      "type": "VEC3"
    },
    {
      "bufferView": 3,
      "byteOffset": 2304,
      "componentType": 5126,
      "count": 24,
      "max": [
        0.81855905055999756,
        0.41229993104934692,
        0.81647616624832153,
        1
      ],
      "min": [
        -0.81855905055999756,
        -0.41235339641571045,
        -0.8165472149848938,
        1
      ],
      "type": "VEC4"
    },
    {
      "bufferView": 1,
      "byteOffset": 1152,
      "componentType": 5126,
      "count": 24,
      "max": [
        1,
        1
      ],
      "min": [
        0,
        0
      ],
      "type": "VEC2"
    },
    {
      "bufferView": 0,
      "byteOffset": 864,
      "componentType": 5125,
      "count": 36,
      "max": [
        23
      ],
      "min": [
        0
      ],
      "type": "SCALAR"
    },
    {
      "bufferView": 2,
      "byteOffset": 4032,
      "componentType": 5126,
      "count": 1600,
      "max": [
        9.5101995468139648,
        27.400800704956055,
        68.913299560546875
      ],
      "min": [
        -8.006500244140625,
        21.078899383544922,
        0.95450001955032349
      ],
      "type": "VEC3"
    },
    {
      "bufferView": 2,
      "byteOffset": 23232,
      "componentType": 5126,
      "count": 1600,
      "max": [
        0.003500012680888176,
        0.70710247755050659,
        0.70710247755050659
      ],
      "min": [
        -0.003500012680888176,
        -0.70710247755050659,
        -0.70710247755050659
      ],
      "type": "VEC3"
    },
    {
      "bufferView": 3,
      "byteOffset": 2688,
      "componentType": 5126,
      "count": 1600,
      "max": [
        0.9999879002571106,
        0.0049374615773558617,
        1.2845392120652832e-05,
        1
      ],
      "min": [
        -0.9999879002571106,
        -0.004937431775033474,
        -1.2857712135883048e-05,
        1
      ],
      "type": "VEC4"
    },
    {
      "bufferView": 1,
      "byteOffset": 1344,
      "componentType": 5126,
      "count": 1600,
      "max": [
        1.0250999927520752,
        0.79339998960494995
      ],
      "min": [
        -0.025100000202655792,
        0.1598999947309494
      ],
      "type": "VEC2"
    },
    {
      "bufferView": 0,
      "byteOffset": 1008,
      "componentType": 5125,
      "count": 2400,
      "max": [
        1599
      ],
      "min": [
        0
      ],
      "type": "SCALAR"
    },
    {
      "bufferView": 2,
      "byteOffset": 42432,
      "componentType": 5126,
      "count": 400,
      "max": [
        15.191100120544434,
        27.461999893188477,
        68.906097412109375
      ],
      "min": [
        -16.14739990234375,
        22.223699569702148,
        1.0312999486923218
      ],
      "type": "VEC3"
    },
    {
      "bufferView": 2,
      "byteOffset": 47232,
      "componentType": 5126,
      "count": 400,
      "max": [
        0.0091996109113097191,
        0.99995768070220947,
        0
      ],
      "min": [
        0.0091996109113097191,
        0.99995768070220947,
        0
      ],
      "type": "VEC3"
    },
    {
      "bufferView": 3,
      "byteOffset": 28288,
      "componentType": 5126,
      "count": 400,
      "max": [
        -0.99990636110305786,
        0.0091991396620869637,
        0.010140287689864635,
        1
      ],
      "min": [
        -0.99990636110305786,
        0.009199138730764389,
        0.010140283033251762,
        1
      ],
      "type": "VEC4"
    },
    {
      "bufferView": 1,
      "byteOffset": 14144,
      "componentType": 5126,
      "count": 400,
      "max": [
        1,
        1
      ],
      "min": [
        0,
        0
      ],
      "type": "VEC2"
    },
    {
      "bufferView": 0,
      "byteOffset": 10608,
      "componentType": 5125,
      "count": 600,
      "max": [
        399
      ],
      "min": [
        0
      ],
      "type": "SCALAR"
    },
    {
      "bufferView": 2,
      "byteOffset": 52032,
      "componentType": 5126,
      "count": 9900,
      "max": [
        15.256500244140625,
        27.454900741577148,
        55.446701049804688
      ],
      "min": [
        -16.218799591064453,
        21.037900924682617,
        34.885501861572266
      ],
      "type": "VEC3"
    },
    {
      "bufferView": 2,
      "byteOffset": 170832,
      "componentType": 5126,
      "count": 9900,
      "max": [
        0.0091996109113097191,
        0.99995768070220947,
        -9.9995762866456062e-05
      ],
      "min": [
        0.0091996109113097191,
        0.99995768070220947,
        -9.9995762866456062e-05
      ],
      "type": "VEC3"
    },
    {
      "bufferView": 3,
      "byteOffset": 34688,
      "componentType": 5126,
      "count": 9900,
      "max": [
        0.99990665912628174,
        -0.0092001510784029961,
        -0.010110358707606792,
        -1
      ],
      "min": [
        0.99990659952163696,
        -0.0092001548036932945,
        -0.010110434144735336,
        -1
      ],
      "type": "VEC4"
    },
    {
      "bufferView": 1,
      "byteOffset": 17344,
      "componentType": 5126,
      "count": 9900,
      "max": [
        1,
        1
      ],
      "min": [
        0,
        0
      ],
      "type": "VEC2"
    },
    {
      "bufferView": 0,
      "byteOffset": 13008,
      "componentType": 5125,
      "count": 14850,
      "max": [
        9899
      ],
      "min": [
        0
      ],
      "type": "SCALAR"
    },
    {
      "bufferView": 2,
      "byteOffset": 289632,
      "componentType": 5126,
      "count": 9900,
      "max": [
        15.256500244140625,
        27.454900741577148,
        69.063400268554688
      ],
      "min": [
        -16.218799591064453,
        21.037900924682617,
        34.885501861572266
      ],
      "type": "VEC3"
    },
    {
      "bufferView": 2,
      "byteOffset": 408432,
      "componentType": 5126,
      "count": 9900,
      "max": [
        0.0091996109113097191,
        0.99995768070220947,
        -9.9995762866456062e-05
      ],
      "min": [
        0.0091996109113097191,
        0.99995768070220947,
        -9.9995762866456062e-05
      ],
      "type": "VEC3"
    },
    {
      "bufferView": 3,
      "byteOffset": 193088,
      "componentType": 5126,
      "count": 9900,
      "max": [
        0.99990665912628174,
        -0.0092001510784029961,
        -0.010110358707606792,
        -1
      ],
      "min": [
        0.99990659952163696,
        -0.0092001548036932945,
        -0.010110673494637012,
        -1
      ],
      "type": "VEC4"
    },
    {
      "bufferView": 1,
      "byteOffset": 96544,
      "componentType": 5126,
      "count": 9900,
      "max": [
        1,
        1
      ],
      "min": [
        0,
        0
      ],
      "type": "VEC2"
    },
    {
      "bufferView": 0,
      "byteOffset": 72408,
      "componentType": 5125,
      "count": 14850,
      "max": [
        9899
      ],
      "min": [
        0
      ],
      "type": "SCALAR"
    },
    {
      "bufferView": 2,
      "byteOffset": 527232,
      "componentType": 5126,
      "count": 9900,
      "max": [
        15.256500244140625,
        27.454900741577148,
        21.435300827026367
      ],
      "min": [
        -16.218799591064453,
        21.037900924682617,
        0.87400001287460327
      ],
      "type": "VEC3"
    },
    {
      "bufferView": 2,
      "byteOffset": 646032,
      "componentType": 5126,
      "count": 9900,
      "max": [
        0.0091996109113097191,
        0.99995768070220947,
        -9.9995762866456062e-05
      ],
      "min": [
        0.0091996109113097191,
        0.99995768070220947,
        -9.9995762866456062e-05
      ],
      "type": "VEC3"
    },
    {
      "bufferView": 3,
      "byteOffset": 351488,
      "componentType": 5126,
      "count": 9900,
      "max": [
        0.99990665912628174,
        -0.0092001510784029961,
        -0.01011036429554224,
        -1
      ],
      "min": [
        0.99990659952163696,
        -0.0092001538723707199,
        -0.010110552422702312,
        -1
      ],
      "type": "VEC4"
    },
    {
      "bufferView": 1,
      "byteOffset": 175744,
      "componentType": 5126,
      "count": 9900,
      "max": [
        1,
        1
      ],
      "min": [
        0,
        0
      ],
      "type": "VEC2"
    },
    {
      "bufferView": 0,
      "byteOffset": 131808,
      "componentType": 5125,
      "count": 14850,
      "max": [
        9899
      ],
      "min": [
        0
      ],
      "type": "SCALAR"
    },
    {
      "bufferView": 2,
      "byteOffset": 764832,
      "componentType": 5126,
      "count": 9900,
      "max": [
        15.256500244140625,
        27.454900741577148,
        35.035598754882812
      ],
      "min": [
        -16.218799591064453,
        21.037900924682617,
        0.87400001287460327
      ],
      "type": "VEC3"
    },
    {
      "bufferView": 2,
      "byteOffset": 883632,
      "componentType": 5126,
      "count": 9900,
      "max": [
        0.0091996109113097191,
        0.99995768070220947,
        -9.9995762866456062e-05
      ],
      "min": [
        0.0091996109113097191,
        0.99995768070220947,
        -9.9995762866456062e-05
      ],
      "type": "VEC3"
    },
    {
      "bufferView": 3,
      "byteOffset": 509888,
      "componentType": 5126,
      "count": 9900,
      "max": [
        0.99990665912628174,
        -0.0092001510784029961,
        -0.010110361501574516,
        -1
      ],
      "min": [
        0.99990659952163696,
        -0.0092001538723707199,
        -0.010110552422702312,
        -1
      ],
      "type": "VEC4"
    },
    {
      "bufferView": 1,
      "byteOffset": 254944,
      "componentType": 5126,
      "count": 9900,
      "max": [
        1,
        1
      ],
      "min": [
        0,
        0
      ],
      "type": "VEC2"
    },
    {
      "bufferView": 0,
      "byteOffset": 191208,
      "componentType": 5125,
      "count": 14850,
      "max": [
        9899
      ],
      "min": [
        0
      ],
      "type": "SCALAR"
    }
  ],
  "asset": {
    "extras": {
      "author": "nocharette (https://sketchfab.com/nocharette)",
      "license": "CC-BY-4.0 (http://creativecommons.org/licenses/by/4.0/)",
      "source": "https://sketchfab.com/models/ffa7d3e4b819492fb3af7c58cb0f61fc",
      "title": "liasse_billet"
    },
    "generator": "Sketchfab-4.27.0",
    "version": "2.0"
  },
  "bufferViews": [
    {
      "buffer": 0,
      "byteLength": 250608,
      "byteOffset": 0,
      "name": "floatBufferViews",
      "target": 34963
    },
    {
      "buffer": 0,
      "byteLength": 334144,
      "byteOffset": 250608,
      "byteStride": 8,
      "name": "floatBufferViews",
      "target": 34962
    },
    {
      "buffer": 0,
      "byteLength": 1002432,
      "byteOffset": 584752,
      "byteStride": 12,
      "name": "floatBufferViews",
      "target": 34962
    },
    {
      "buffer": 0,
      "byteLength": 668288,
      "byteOffset": 1587184,
      "byteStride": 16,
      "name": "floatBufferViews",
      "target": 34962
    }
  ],
  "buffers": [
    {
      "byteLength": 2255472,
      "uri": "scene.bin"
    }
  ],
  "images": [
    {
      "uri": "textures/08___Default_baseColor.png"
    },
    {
      "uri": "textures/08___Default_emissive.png"
    },
    {
      "uri": "textures/verso_baseColor.jpeg"
    },
    {
      "uri": "textures/verso_emissive.jpeg"
    },
    {
      "uri": "textures/billet_baseColor.jpeg"
    },
    {
      "uri": "textures/billet_emissive.jpeg"
    },
    {
      "uri": "textures/Paper_D02_14cm_baseColor.jpeg"
    },
    {
      "uri": "textures/Paper_D02_14cm_emissive.jpeg"
    }
  ],
  "materials": [
    {
      "doubleSided": true,
      "emissiveFactor": [
        0,
        0,
        0
      ],
      "emissiveTexture": {
        "index": 1,
        "texCoord": 0
      },
      "name": "08___Default",
      "pbrMetallicRoughness": {
        "baseColorFactor": [
          1,
          1,
          1,
          1
        ],
        "baseColorTexture": {
          "index": 0,
          "texCoord": 0
        },
        "metallicFactor": 0,
        "roughnessFactor": 1
      }
    },
    {
      "doubleSided": true,
      "emissiveFactor": [
        0,
        0,
        0
      ],
      "emissiveTexture": {
        "index": 7,
        "texCoord": 0
      },
      "name": "Paper_D02_14cm",
      "pbrMetallicRoughness": {
        "baseColorFactor": [
          1,
          1,
          1,
          1
        ],
        "baseColorTexture": {
          "index": 6,
          "texCoord": 0
        },
        "metallicFactor": 0,
        "roughnessFactor": 1
      }
    },
    {
      "doubleSided": true,
      "emissiveFactor": [
        0,
        0,
        0
      ],
      "emissiveTexture": {
        "index": 5,
        "texCoord": 0
      },
      "name": "billet",
      "pbrMetallicRoughness": {
        "baseColorFactor": [
          1,
          1,
          1,
          1
        ],
        "baseColorTexture": {
          "index": 4,
          "texCoord": 0
        },
        "metallicFactor": 0,
        "roughnessFactor": 1
      }
    },
    {
      "doubleSided": true,
      "emissiveFactor": [
        0,
        0,
        0
      ],
      "emissiveTexture": {
        "index": 3,
        "texCoord": 0
      },
      "name": "verso",
      "pbrMetallicRoughness": {
        "baseColorFactor": [
          1,
          1,
          1,
          1
        ],
        "baseColorTexture": {
          "index": 2,
          "texCoord": 0
        },
        "metallicFactor": 0,
        "roughnessFactor": 1
      }
    },
    {
      "alphaMode": "BLEND",
      "doubleSided": true,
      "emissiveFactor": [
        0,
        0,
        0
      ],
      "name": "wire_166229229",
      "pbrMetallicRoughness": {
        "baseColorFactor": [
          0.65100000000000002,
          0.89800000000000002,
          0.89800000000000002,
          0.21431250569999999
        ],
        "metallicFactor": 0,
        "roughnessFactor": 0.91675550189999999
      }
    }
  ],
  "meshes": [
    {
      "primitives": [
        {
          "attributes": {
            "NORMAL": 1,
            "POSITION": 0,
            "TANGENT": 2,
            "TEXCOORD_0": 3
          },
          "indices": 4,
          "material": 4,
          "mode": 4
        }
      ]
    },
    {
      "primitives": [
        {
          "attributes": {
            "NORMAL": 6,
            "POSITION": 5,
            "TANGENT": 7,
            "TEXCOORD_0": 8
          },
          "indices": 9,
          "material": 0,
          "mode": 4
        }
      ]
    },
    {
      "primitives": [
        {
          "attributes": {
            "NORMAL": 11,
            "POSITION": 10,
            "TANGENT": 12,
            "TEXCOORD_0": 13
          },
          "indices": 14,
          "material": 1,
          "mode": 4
        }
      ]
    },
    {
      "primitives": [
        {
          "attributes": {
            "NORMAL": 16,
            "POSITION": 15,
            "TANGENT": 17,
            "TEXCOORD_0": 18
          },
          "indices": 19,
          "material": 3,
          "mode": 4
        }
      ]
    },
    {
      "primitives": [
        {
          "attributes": {
            "NORMAL": 21,
            "POSITION": 20,
            "TANGENT": 22,
            "TEXCOORD_0": 23
          },
          "indices": 24,
          "material": 2,
          "mode": 4
        }
      ]
    },
    {
      "primitives": [
        {
          "attributes": {
            "NORMAL": 26,
            "POSITION": 25,
            "TANGENT": 27,
            "TEXCOORD_0": 28
          },
          "indices": 29,
          "material": 2,
          "mode": 4
        }
      ]
    },
    {
      "primitives": [
        {
          "attributes": {
            "NORMAL": 31,
            "POSITION": 30,
            "TANGENT": 32,
            "TEXCOORD_0": 33
          },
          "indices": 34,
          "material": 2,
          "mode": 4
        }
      ]
    },
    {
      "primitives": [
        {
          "attributes": {
            "NORMAL": 36,
            "POSITION": 35,
            "TANGENT": 37,
            "TEXCOORD_0": 38
          },
          "indices": 39,
          "material": 2,
          "mode": 4
        }
      ]
    }
  ],
  "nodes": [
    {
      "children": [
        1
      ],
      "name": "RootNode (gltf orientation matrix)",
      "rotation": [
        -0.70710678118654746,
        -0,
        -0,
        0.70710678118654757
      ]
    },
    {
      "children": [
        2
      ],
      "name": "RootNode (model correction matrix)"
    },
    {
      "children": [
        3,
        4,
        5,
        6,
        7,
        8,
        9,
        10
      ],
      "name": "liasse_billet.obj.cleaner.materialmerger.gles"
    },
    {
      "mesh": 0,
      "name": ""
    },
    {
      "mesh": 1,
      "name": ""
    },
    {
      "mesh": 2,
      "name": ""
    },
    {
      "mesh": 3,
      "name": ""
    },
    {
      "mesh": 4,
      "name": ""
    },
    {
      "mesh": 5,
      "name": ""
    },
    {
      "mesh": 6,
      "name": ""
    },
    {
      "mesh": 7,
      "name": ""
    }
  ],
  "samplers": [
    {
      "magFilter": 9729,
      "minFilter": 9987,
      "wrapS": 10497,
      "wrapT": 10497
    }
  ],
  "scene": 0,
  "scenes": [
    {
      "name": "OSG_Scene",
      "nodes": [
        0
      ]
    }
  ],
  "textures": [
    {
      "sampler": 0,
      "source": 0
    },
    {
      "sampler": 0,
      "source": 1
    },
    {
      "sampler": 0,
      "source": 2
    },
    {
      "sampler": 0,
      "source": 3
    },
    {
      "sampler": 0,
      "source": 4
    },
    {
      "sampler": 0,
      "source": 5
    },
    {
      "sampler": 0,
      "source": 6
    },
    {
      "sampler": 0,
      "source": 7
    }
  ]
}

